<svg id="Capa_1" enable-background="new 0 0 512 512" height="512" viewBox="0 0 512 512" width="512" xmlns="http://www.w3.org/2000/svg"><g><path d="m442.606 497.049-27.416-34.981c-1.798-2.294-5.27-2.294-7.068 0l-31.908 40.71c-1.798 2.294-5.27 2.294-7.068 0l-31.912-40.711c-1.798-2.293-5.27-2.293-7.068 0l-31.913 40.712c-1.798 2.293-5.27 2.293-7.068 0l-31.915-40.712c-1.798-2.293-5.27-2.293-7.068 0l-31.914 40.712c-1.798 2.293-5.27 2.293-7.067 0l-31.919-40.713c-1.798-2.293-5.27-2.293-7.067 0l-27.429 34.986c-2.632 3.358-8.024 1.496-8.024-2.77v-335.039l-50.67-151.743h86.693 225.155c27.984 0 50.67 22.686 50.67 50.67v436.11c0 4.266-5.392 6.128-8.024 2.769z" fill="#f9f6f9"/><g><path d="m399.961 7.5h-28.155c27.984 0 50.67 22.686 50.67 50.67v413.195l20.131 25.685c2.632 3.358 8.024 1.497 8.024-2.77v-436.111c-.001-27.984-22.686-50.669-50.67-50.669z" fill="#dddaec"/></g><path d="m138.782 164.991h-93.847c-4.138 0-7.493-3.355-7.493-7.493v-99.329c0-27.984 22.686-50.67 50.67-50.67 27.984 0 50.67 22.686 50.67 50.67z" fill="#d0cee7"/><path d="m88.112 7.5c-5.173 0-10.163.78-14.864 2.22 20.73 6.352 35.805 25.638 35.805 48.449v106.821h29.729v-106.821c0-27.984-22.686-50.669-50.67-50.669z" fill="#beb9dd"/><circle cx="415.155" cy="373.546" fill="#95d6a4" r="59.403"/><path d="m415.155 314.143c-4.372 0-8.628.486-12.731 1.382 26.687 5.83 46.672 29.585 46.672 58.021s-19.985 52.191-46.672 58.021c4.103.896 8.359 1.382 12.731 1.382 32.807 0 59.403-26.596 59.403-59.403s-26.596-59.403-59.403-59.403z" fill="#78c2a4"/><g><path d="m207.998 430.283c4.143 0 7.5-3.357 7.5-7.5v-7.062c14.334-3.244 23.538-15.313 25.539-27.216 2.556-15.197-5.388-28.408-20.236-33.657-1.744-.616-3.524-1.259-5.303-1.927v-31.241c6.509.212 10.831 1.904 11.02 1.98 3.802 1.596 8.178-.169 9.802-3.962 1.631-3.808-.135-8.216-3.942-9.847-.411-.177-7.033-2.94-16.879-3.179v-4.537c0-4.143-3.357-7.5-7.5-7.5s-7.5 3.357-7.5 7.5v6.227c-.794.201-1.593.415-2.402.659-9.814 2.957-17.146 11.346-19.134 21.895-1.817 9.646 1.292 18.961 8.113 24.312 3.437 2.696 7.677 5.166 13.423 7.756v38.369c-4.696-.461-7.916-1.776-13.197-5.231-3.467-2.266-8.113-1.296-10.382 2.171-2.268 3.466-1.296 8.114 2.171 10.382 8.36 5.469 14.157 7.223 21.408 7.722v6.387c-.001 4.142 3.356 7.499 7.499 7.499zm-11.665-86.858c-2.362-1.853-3.395-5.673-2.63-9.731.646-3.428 2.763-7.49 6.795-9.537v22.029c-1.543-.892-2.954-1.811-4.165-2.761zm19.469 25.565c11.654 4.119 10.939 14.074 10.443 17.027-.922 5.485-4.575 11.287-10.747 13.992v-31.128c.103.037.2.073.304.109z"/><path d="m371.114 74.357c0-4.143-3.357-7.5-7.5-7.5h-137.816c-4.143 0-7.5 3.357-7.5 7.5s3.357 7.5 7.5 7.5h137.816c4.143 0 7.5-3.357 7.5-7.5z"/><path d="m190.763 161.866h29.491c4.143 0 7.5-3.357 7.5-7.5s-3.357-7.5-7.5-7.5h-29.491c-4.143 0-7.5 3.357-7.5 7.5s3.357 7.5 7.5 7.5z"/><path d="m398.649 146.866h-137.594c-4.143 0-7.5 3.357-7.5 7.5s3.357 7.5 7.5 7.5h137.595c4.143 0 7.5-3.357 7.5-7.5s-3.358-7.5-7.501-7.5z"/><path d="m190.763 200.736h29.491c4.143 0 7.5-3.357 7.5-7.5s-3.357-7.5-7.5-7.5h-29.491c-4.143 0-7.5 3.357-7.5 7.5s3.357 7.5 7.5 7.5z"/><path d="m398.649 185.736h-137.594c-4.143 0-7.5 3.357-7.5 7.5s3.357 7.5 7.5 7.5h137.595c4.143 0 7.5-3.357 7.5-7.5s-3.358-7.5-7.501-7.5z"/><path d="m190.763 239.607h29.491c4.143 0 7.5-3.357 7.5-7.5s-3.357-7.5-7.5-7.5h-29.491c-4.143 0-7.5 3.357-7.5 7.5s3.357 7.5 7.5 7.5z"/><path d="m398.649 224.607h-137.594c-4.143 0-7.5 3.357-7.5 7.5s3.357 7.5 7.5 7.5h137.595c4.143 0 7.5-3.357 7.5-7.5s-3.358-7.5-7.501-7.5z"/><path d="m398.649 277.726h-69.732c-4.143 0-7.5 3.357-7.5 7.5s3.357 7.5 7.5 7.5h69.732c4.143 0 7.5-3.357 7.5-7.5s-3.357-7.5-7.5-7.5z"/><path d="m448.117 373.546c0-18.175-14.787-32.962-32.962-32.962s-32.962 14.787-32.962 32.962 14.787 32.962 32.962 32.962 32.962-14.787 32.962-32.962zm-50.924 0c0-9.904 8.058-17.962 17.962-17.962s17.962 8.058 17.962 17.962-8.058 17.962-17.962 17.962-17.962-8.058-17.962-17.962z"/><path d="m482.058 373.546c0-20.54-9.312-38.939-23.928-51.222v-194.534c0-4.143-3.357-7.5-7.5-7.5s-7.5 3.357-7.5 7.5v185.006c-8.518-3.938-17.99-6.153-27.975-6.153-17.165 0-33.491 6.505-45.971 18.317-3.009 2.848-3.139 7.595-.292 10.603 2.848 3.009 7.596 3.138 10.603.292 9.683-9.165 22.347-14.212 35.66-14.212 28.619 0 51.902 23.283 51.902 51.902s-23.283 51.903-51.902 51.903-51.903-23.284-51.903-51.903c0-5.144.756-10.236 2.247-15.136 1.206-3.963-1.028-8.152-4.991-9.358-3.961-1.208-8.152 1.027-9.358 4.991-1.923 6.316-2.897 12.878-2.897 19.503 0 36.891 30.013 66.903 66.903 66.903 9.984 0 19.457-2.214 27.975-6.153v51.263l-22.038-28.119c-2.289-2.919-5.729-4.593-9.438-4.592-3.708.001-7.147 1.675-9.435 4.593l-29.54 37.69-29.542-37.688c-2.288-2.919-5.729-4.594-9.438-4.594s-7.149 1.675-9.437 4.594l-29.545 37.688-29.546-37.69c-2.288-2.918-5.728-4.592-9.437-4.592-3.708 0-7.147 1.674-9.436 4.593l-29.546 37.691-29.551-37.693c-2.288-2.918-5.728-4.592-9.437-4.592-3.708 0-7.147 1.674-9.436 4.593l-22.05 28.126c0-14.356-.001-423.283-.001-427.396 0-17.111-7.429-32.516-19.227-43.17h272.907c23.804 0 43.169 19.366 43.169 43.17v39.633c0 4.143 3.357 7.5 7.5 7.5s7.5-3.357 7.5-7.5v-39.633c.003-32.075-26.092-58.17-58.166-58.17h-311.849c-32.075 0-58.17 26.095-58.17 58.17v27.746c0 4.143 3.357 7.5 7.5 7.5s7.5-3.357 7.5-7.5v-27.746c0-23.804 19.366-43.17 43.17-43.17s43.169 19.366 43.169 43.17v99.321l-86.339.007v-41.596c0-4.143-3.357-7.5-7.5-7.5s-7.5 3.357-7.5 7.5v41.596c0 8.267 6.726 14.992 14.993 14.992h86.346l.001 321.793c0 5.19 3.17 9.64 8.076 11.333 4.902 1.695 10.145.15 13.35-3.936l25.061-31.966 29.551 37.693c2.288 2.918 5.728 4.592 9.436 4.592 3.709 0 7.148-1.674 9.437-4.593l29.546-37.69 29.545 37.689c2.288 2.919 5.728 4.594 9.438 4.594 3.709 0 7.148-1.675 9.436-4.594l29.545-37.689 29.544 37.69c2.288 2.918 5.728 4.592 9.437 4.592 3.708 0 7.147-1.674 9.437-4.593l29.538-37.688 25.048 31.958c3.202 4.087 8.442 5.634 13.349 3.938 4.907-1.694 8.078-6.144 8.078-11.335v-69.511c14.611-12.281 23.924-30.681 23.924-51.221z"/></g></g></svg>