<svg id="Capa_1" enable-background="new 0 0 512 512" height="512" viewBox="0 0 512 512" width="512" xmlns="http://www.w3.org/2000/svg"><g><path d="m474.5 82.5h-215.394l-49.016-49.017c-7.084-7.083-16.501-10.983-26.517-10.983h-146.073c-20.678 0-37.5 16.822-37.5 37.5v392c0 20.678 16.822 37.5 37.5 37.5h437c20.678 0 37.5-16.822 37.5-37.5v-332c0-20.678-16.822-37.5-37.5-37.5zm-437-45h146.073c6.01 0 11.66 2.34 15.91 6.59l51.213 51.213c1.407 1.407 3.314 2.197 5.304 2.197h218.5c12.406 0 22.5 10.093 22.5 22.5v30.021c-4.363-3.283-9.461-5.637-15-6.766v-23.255c0-4.142-3.357-7.5-7.5-7.5h-437c-4.143 0-7.5 3.358-7.5 7.5v83.255c-5.539 1.129-10.637 3.483-15 6.766v-150.021c0-12.407 10.094-22.5 22.5-22.5zm60 105c-4.143 0-7.5 3.358-7.5 7.5s3.357 7.5 7.5 7.5h200.393l-44.999 45h-207.894v-45h22.5c4.143 0 7.5-3.358 7.5-7.5s-3.357-7.5-7.5-7.5h-22.5v-15h422v15zm399.5 309.5c0 12.407-10.094 22.5-22.5 22.5h-437c-12.406 0-22.5-10.093-22.5-22.5v-212c0-12.407 10.094-22.5 22.5-22.5h218.5c1.989 0 3.896-.79 5.304-2.197l51.212-51.213c4.251-4.25 9.901-6.59 15.911-6.59h146.073c12.406 0 22.5 10.093 22.5 22.5z"/></g></svg>