<?xml version="1.0" encoding="UTF-8"?>
<svg xmlns="http://www.w3.org/2000/svg" width="512" height="512" viewBox="0 0 128 128"><g><path d="M108.125,18.256H95.105A10.759,10.759,0,0,0,84.453,8.881h-4.4A9.764,9.764,0,0,0,70.344,0H57.656a9.764,9.764,0,0,0-9.712,8.881H40.812a10.758,10.758,0,0,0-10.651,9.375H19.875a5.756,5.756,0,0,0-5.75,5.75V122.25a5.756,5.756,0,0,0,5.75,5.75h88.25a5.756,5.756,0,0,0,5.75-5.75V24.006A5.756,5.756,0,0,0,108.125,18.256ZM31.812,31.131h70.563V116.5H25.625V31.131Zm51.891-3.5H41.562v-7.25H83.7Zm-50.141-8a7.258,7.258,0,0,1,7.25-7.25h8.844a1.749,1.749,0,0,0,1.75-1.75V9.75a6.257,6.257,0,0,1,6.25-6.25H70.344a6.257,6.257,0,0,1,6.25,6.25v.881a1.749,1.749,0,0,0,1.75,1.75h6.109a7.258,7.258,0,0,1,7.25,7.25v8H87.2v-8a2.752,2.752,0,0,0-2.75-2.75H40.812a2.753,2.753,0,0,0-2.75,2.75v8h-4.5v-8ZM110.375,122.25a2.253,2.253,0,0,1-2.25,2.25H19.875a2.253,2.253,0,0,1-2.25-2.25V24.006a2.253,2.253,0,0,1,2.25-2.25H30.062v5.875H23.875a1.749,1.749,0,0,0-1.75,1.75V118.25a1.749,1.749,0,0,0,1.75,1.75h80.25a1.749,1.749,0,0,0,1.75-1.75V29.381a1.749,1.749,0,0,0-1.75-1.75H95.2V21.756h12.922a2.253,2.253,0,0,1,2.25,2.25Z"/><path d="M59.812,12.381h8.375a1.75,1.75,0,0,0,0-3.5H59.812a1.75,1.75,0,0,0,0,3.5Z"/><path d="M64,87.247A25.25,25.25,0,1,0,38.75,62,25.278,25.278,0,0,0,64,87.247Zm0-47A21.75,21.75,0,1,1,42.25,62,21.775,21.775,0,0,1,64,40.247Z"/><path d="M49.885,66.868H59.13v9.244a1.749,1.749,0,0,0,1.75,1.75h6.24a1.749,1.749,0,0,0,1.75-1.75V66.868h9.245a1.749,1.749,0,0,0,1.75-1.75V58.877a1.749,1.749,0,0,0-1.75-1.75H68.87V47.883a1.749,1.749,0,0,0-1.75-1.75H60.88a1.749,1.749,0,0,0-1.75,1.75v9.244H49.885a1.749,1.749,0,0,0-1.75,1.75v6.241A1.749,1.749,0,0,0,49.885,66.868Zm1.75-6.241H60.88a1.749,1.749,0,0,0,1.75-1.75V49.633h2.74v9.244a1.749,1.749,0,0,0,1.75,1.75h9.245v2.741H67.12a1.749,1.749,0,0,0-1.75,1.75v9.244H62.63V65.118a1.749,1.749,0,0,0-1.75-1.75H51.635Z"/><path d="M34.547,95.873H93.453a1.75,1.75,0,0,0,0-3.5H34.547a1.75,1.75,0,0,0,0,3.5Z"/><path d="M34.547,103.936H93.453a1.75,1.75,0,0,0,0-3.5H34.547a1.75,1.75,0,0,0,0,3.5Z"/><path d="M85.437,108.5H42.562a1.75,1.75,0,0,0,0,3.5H85.437a1.75,1.75,0,1,0,0-3.5Z"/></g></svg>
