<svg height="512" viewBox="0 0 128 128" width="512" xmlns="http://www.w3.org/2000/svg"><g><path d="m77.863 18.132v-8.382a1.749 1.749 0 0 0 -1.75-1.75h-58.237a1.75 1.75 0 0 0 -1.75 1.75v8.382a1.75 1.75 0 0 0 1.75 1.75h58.237a1.749 1.749 0 0 0 1.75-1.75zm-3.5-1.75h-54.737v-4.882h54.737z"/><path d="m120.917 66.883a13.958 13.958 0 0 0 -19.739 0l-10.184 10.184v-28.417a9.761 9.761 0 0 0 -9.75-9.75h-9.625v-11.018h8.494a5.756 5.756 0 0 0 5.75-5.75v-16.382a5.756 5.756 0 0 0 -5.75-5.75h-66.237a5.757 5.757 0 0 0 -5.751 5.75v16.382a5.757 5.757 0 0 0 5.751 5.75h8.493v11.018h-9.625a9.761 9.761 0 0 0 -9.75 9.75v66.6a12.765 12.765 0 0 0 12.75 12.75h62.5a12.774 12.774 0 0 0 12.75-13.026 13.927 13.927 0 0 0 4.654-3.079l25.269-25.27a13.973 13.973 0 0 0 0-19.742zm-45.008 25.269a14.081 14.081 0 0 0 -2.349 16.6h-67.066v-51.817h81v23.631zm-64.283-70.02v-16.382a2.253 2.253 0 0 1 2.25-2.25h66.237a2.253 2.253 0 0 1 2.25 2.25v16.382a2.253 2.253 0 0 1 -2.25 2.25h-66.237a2.253 2.253 0 0 1 -2.25-2.25zm1.118 20.268h11.375a1.75 1.75 0 0 0 1.75-1.75v-12.768h42.25v12.768a1.75 1.75 0 0 0 1.75 1.75h11.375a6.257 6.257 0 0 1 6.25 6.25v4.785h-81v-4.785a6.257 6.257 0 0 1 6.25-6.25zm65.5 82.1h-62.5a9.26 9.26 0 0 1 -9.25-9.25v-3h69.806a13.845 13.845 0 0 0 9.474 3.73 14.26 14.26 0 0 0 1.685-.111 9.255 9.255 0 0 1 -9.215 8.631zm14.929-15.08a10.442 10.442 0 0 1 -14.908-.134 10.5 10.5 0 0 1 .119-14.656l6.049-6.049 5.348-5.349 14.789 14.788zm25.27-25.27-11.4 11.4-14.787-14.795 11.4-11.4a10.458 10.458 0 0 1 14.79 14.79z"/><path d="m112.787 72.539a1.75 1.75 0 0 0 0 2.475 2.459 2.459 0 0 1 0 3.476l-1.555 1.555a1.75 1.75 0 0 0 2.475 2.475l1.555-1.555a5.959 5.959 0 0 0 0-8.424 1.749 1.749 0 0 0 -2.475-.002z"/><path d="m60.667 77.093h-7.922v-7.924a1.75 1.75 0 0 0 -1.745-1.75h-8a1.749 1.749 0 0 0 -1.75 1.75v7.924h-7.929a1.75 1.75 0 0 0 -1.75 1.75v8a1.75 1.75 0 0 0 1.75 1.75h7.924v7.923a1.75 1.75 0 0 0 1.755 1.75h8a1.751 1.751 0 0 0 1.75-1.75v-7.923h7.922a1.749 1.749 0 0 0 1.75-1.75v-8a1.749 1.749 0 0 0 -1.755-1.75zm-1.75 8h-7.917a1.749 1.749 0 0 0 -1.75 1.75v7.923h-4.5v-7.923a1.75 1.75 0 0 0 -1.75-1.75h-7.929v-4.5h7.929a1.75 1.75 0 0 0 1.75-1.75v-7.924h4.5v7.924a1.749 1.749 0 0 0 1.75 1.75h7.922z"/></g></svg>