<svg id="Capa_1" enable-background="new 0 0 512.013 512.013" height="512" viewBox="0 0 512.013 512.013" width="512" xmlns="http://www.w3.org/2000/svg"><g><path d="m501.387 275.495c-29.319-29.319-76.778-29.324-106.101 0l-52.325 52.324c-4.089 4.089-8.83 7.283-13.983 9.509v-56.329h-177.647c-20.033 0-38.868 7.802-52.978 21.913l-98.337 97.89 111.214 111.211c99.912-99.915 47.723-47.496 81.401-81.014h118.513c36.057 0 69.931-14.016 95.384-39.465 88.44-88.427 95.932-95.894 105.471-105.428zm-390.159 194.091-68.789-68.788 21.211-21.219 68.787 68.798zm274.088-99.266c-19.787 19.784-46.128 30.68-74.172 30.68h-130.819l-26.602 26.238-68.807-68.818 34.595-34.24c8.499-8.499 19.799-13.18 31.819-13.18h147.646v30h-112.5v30h124.664c20.033 0 38.868-7.802 53.033-21.967l52.325-52.324c14.109-14.109 34.861-16.66 51.262-8.808-24.966 24.951-58.905 58.883-82.444 82.419z"/><path d="m270.977 240h120v-60h60v-120h-60v-60h-120v60h-60v120h60zm-30-90v-60h60v-60h60v60h60v60h-60v60h-60v-60z"/></g></svg>